<?xml version="1.0" encoding="utf-8"?>
<!-- Generator: Adobe Illustrator 25.0.1, SVG Export Plug-In . SVG Version: 6.00 Build 0)  -->
<svg version="1.1" id="Layer_1" xmlns="http://www.w3.org/2000/svg" xmlns:xlink="http://www.w3.org/1999/xlink" x="0px" y="0px"
	 viewBox="0 0 32 32" style="enable-background:new 0 0 32 32;" xml:space="preserve">
<style type="text/css">
	.st0{fill:#6D0303;}
</style>
<path class="st0" d="M14.29,7.58c0.45,0.3,1.22,0.75,1.22,1.29v14.85c0,0.02-0.01,0.03-0.03,0.03c-0.02,0-0.03-0.01-0.03-0.03
	c-0.24-1.57-1.34-7.13-5.14-10.14c-4.45-3.52-6.34-5.5-6.93-7.13c-0.6-1.63-1.11-4.55-0.52-6.44L14.29,7.58z"/>
<path d="M11.42,16.25c0,0,2.91,3.4,3.24,7.76c0.03,0.41-0.11,0.53-0.33,0.7L2.8,32.02c0,0-0.96-5.57,1.09-8.32L11.42,16.25z"/>
<path class="st0" d="M17.71,7.54c-0.45,0.3-1.22,0.75-1.22,1.3v14.85c0,0.02,0.01,0.03,0.02,0.03c0.02,0,0.03-0.01,0.03-0.03
	c0.24-1.57,1.35-7.13,5.14-10.14c4.45-3.52,6.33-5.5,6.93-7.13c0.6-1.63,1.11-4.55,0.51-6.44L17.71,7.54z"/>
<path d="M20.58,16.21c0,0-2.91,3.41-3.24,7.77c-0.03,0.41,0.12,0.53,0.33,0.69l11.52,7.31c0,0,0.96-5.57-1.09-8.32L20.58,16.21z"/>
</svg>
